<svg width="1486" height="420" viewBox="0 0 1486 420" fill="none" xmlns="http://www.w3.org/2000/svg">
<g clip-path="url(#clip0_71_22)">
<path d="M666.47 104.1C678.88 110.68 688.48 119.91 695.28 131.79C702.08 143.67 705.48 157.39 705.48 172.94C705.48 188.49 702.08 202.02 695.28 213.97C688.48 225.93 678.83 235.2 666.35 241.77C653.87 248.35 639.4 251.64 622.96 251.64H563.99V94.2402H622.96C639.55 94.2402 654.05 97.5302 666.46 104.11L666.47 104.1ZM654.36 206.57C662.43 198.65 666.47 187.44 666.47 172.94C666.47 158.44 662.43 147.15 654.36 139.08C646.29 131.01 635 126.97 620.5 126.97H602.34V218.46H620.5C635 218.46 646.29 214.5 654.36 206.58V206.57Z" fill="black"/>
<path d="M824.999 223.84H766.249L756.829 251.64H716.689L773.639 94.2305H818.039L874.989 251.64H834.409L824.989 223.84H824.999ZM815.139 194.24L795.629 136.61L776.349 194.24H815.139Z" fill="black"/>
<path d="M918.281 247.61C909.161 243.88 901.871 238.34 896.421 231.02C890.961 223.7 888.091 214.88 887.791 204.56H928.601C929.201 210.39 931.211 214.84 934.651 217.9C938.091 220.97 942.571 222.5 948.101 222.5C953.631 222.5 958.261 221.19 961.551 218.58C964.841 215.97 966.481 212.34 966.481 207.7C966.481 203.81 965.171 200.6 962.561 198.06C959.941 195.52 956.731 193.43 952.921 191.78C949.111 190.14 943.691 188.27 936.661 186.17C926.491 183.03 918.201 179.89 911.771 176.75C905.341 173.61 899.811 168.98 895.181 162.85C890.541 156.72 888.231 148.72 888.231 138.86C888.231 124.21 893.531 112.74 904.151 104.44C914.761 96.14 928.591 92 945.631 92C962.671 92 976.951 96.15 987.561 104.44C998.171 112.74 1003.85 124.28 1004.6 139.08H963.121C962.821 134 960.951 130 957.511 127.08C954.071 124.16 949.661 122.71 944.281 122.71C939.641 122.71 935.911 123.94 933.071 126.41C930.231 128.88 928.811 132.43 928.811 137.06C928.811 142.14 931.201 146.11 935.991 148.94C940.771 151.78 948.251 154.85 958.411 158.13C968.571 161.57 976.831 164.86 983.191 168C989.541 171.14 995.041 175.7 999.671 181.68C1004.3 187.66 1006.62 195.36 1006.62 204.78C1006.62 214.2 1004.34 221.9 999.781 229.22C995.221 236.55 988.601 242.38 979.941 246.71C971.271 251.05 961.031 253.21 949.221 253.21C937.411 253.21 927.391 251.34 918.281 247.6V247.61Z" fill="black"/>
<path d="M1143.41 94.2402V124.96H1101.7V251.65H1063.36V124.96H1021.65V94.2402H1143.41Z" fill="black"/>
<path d="M1201.04 94.2402V251.65H1162.7V94.2402H1201.04Z" fill="black"/>
<path d="M1331.31 94.2402V124.96H1267.18V158.15H1315.17V187.97H1267.18V251.65H1228.84V94.2402H1331.31Z" fill="black"/>
<path d="M1486.48 94.2402L1431.99 199.63V251.65H1393.65V199.63L1339.16 94.2402H1382.66L1413.16 160.16L1443.43 94.2402H1486.48Z" fill="black"/>
<path d="M811.909 308.6C818.629 312 823.769 316.9 827.329 323.29C830.889 329.68 832.669 337.29 832.669 346.11C832.669 354.93 830.889 362.4 827.329 368.75C823.769 375.1 818.629 379.96 811.909 383.32C805.189 386.68 797.139 388.36 787.749 388.36H762.619V303.5H787.749C797.139 303.5 805.189 305.2 811.909 308.6ZM814.759 372.03C820.949 365.84 824.049 357.2 824.049 346.11C824.049 335.02 820.949 326.22 814.759 319.95C808.569 313.68 799.559 310.54 787.749 310.54H771.119V381.31H787.749C799.559 381.31 808.569 378.21 814.759 372.02V372.03Z" fill="black"/>
<path d="M873.939 303.5V388.36H865.439V303.5H873.939Z" fill="black"/>
<path d="M977.129 328.26C974.699 322.68 970.999 318.29 966.019 315.09C961.039 311.89 955.189 310.3 948.479 310.3C942.169 310.3 936.499 311.76 931.479 314.67C926.459 317.58 922.499 321.73 919.579 327.11C916.669 332.49 915.209 338.74 915.209 345.87C915.209 353 916.669 359.27 919.579 364.69C922.489 370.11 926.459 374.28 931.479 377.19C936.499 380.1 942.159 381.56 948.479 381.56C954.389 381.56 959.709 380.28 964.439 377.74C969.169 375.2 972.979 371.55 975.849 366.81C978.719 362.08 980.359 356.55 980.769 350.24H945.079V343.32H989.749V349.51C989.339 356.96 987.319 363.69 983.679 369.72C980.039 375.75 975.159 380.51 969.049 383.98C962.939 387.46 956.079 389.2 948.469 389.2C940.859 389.2 933.499 387.36 927.099 383.68C920.709 380 915.669 374.86 911.989 368.26C908.309 361.66 906.469 354.2 906.469 345.86C906.469 337.52 908.309 330.06 911.989 323.46C915.669 316.87 920.709 311.73 927.099 308.04C933.489 304.36 940.609 302.52 948.469 302.52C957.529 302.52 965.469 304.79 972.259 309.32C979.059 313.85 983.989 320.17 987.069 328.26H977.109H977.129Z" fill="black"/>
<path d="M1030.91 303.5V388.36H1022.41V303.5H1030.91Z" fill="black"/>
<path d="M1116.98 303.5V310.54H1093.43V388.35H1084.93V310.54H1061.26V303.5H1116.98Z" fill="black"/>
<path d="M1196.73 368.2H1158.13L1150.72 388.35H1141.74L1172.7 304.59H1182.29L1213.12 388.35H1204.14L1196.73 368.2ZM1194.18 361.16L1177.43 315.27L1160.68 361.16H1194.18Z" fill="black"/>
<path d="M1252.33 381.429H1282.8V388.349H1243.83V303.489H1252.33V381.429Z" fill="black"/>
<path d="M564.27 343.11H731.06" stroke="black" stroke-width="4" stroke-miterlimit="10"/>
<path d="M1306.09 343.11H1472.87" stroke="black" stroke-width="4" stroke-miterlimit="10"/>
<path d="M206.52 0H82.02C36.72 0 0 36.72 0 82.02V242.84C0 251.67 7.16 258.82 15.98 258.82L93.55 258.86H93.62L136.45 258.88L185.06 206.45L98.23 118.52L154.48 117.98L243.49 205.9L150.1 302.02H17.05C7.63 302.02 0 309.65 0 319.07V420H209.2C267.2 420 319.69 396.49 357.69 358.49C396.22 319.96 419.84 266.53 419.18 207.59C417.89 92.11 322 0 206.52 0ZM235.99 302.02L184.29 300.59L270.94 206.45L184.11 118.53L240.37 117.98L329.38 205.9L235.99 302.02Z" fill="url(#paint0_linear_71_22)"/>
</g>
<defs>
<linearGradient id="paint0_linear_71_22" x1="-30.19" y1="262.28" x2="432.76" y2="131.26" gradientUnits="userSpaceOnUse">
<stop stop-color="#7C3AED"/>
<stop offset="0.15" stop-color="#743CE8"/>
<stop offset="0.36" stop-color="#6044DC"/>
<stop offset="0.62" stop-color="#4050C9"/>
<stop offset="0.91" stop-color="#1361AE"/>
<stop offset="1" stop-color="#0367A5"/>
</linearGradient>
<clipPath id="clip0_71_22">
<rect width="1486" height="420" fill="white"/>
</clipPath>
</defs>
</svg>
