<?xml version="1.0" encoding="UTF-8"?>
<svg id="Layer_1" data-name="Layer 1" xmlns="http://www.w3.org/2000/svg" viewBox="0 0 1486.48 783.52">
  <defs>
    <style>
      .cls-1 {
        fill: #fff;
      }

      .cls-2 {
        fill: none;
        stroke: #fff;
        stroke-miterlimit: 10;
        stroke-width: 4px;
      }
    </style>
  </defs>
  <g>
    <path class="cls-1" d="M666.47,104.1c12.41,6.58,22.01,15.81,28.81,27.69,6.8,11.88,10.2,25.6,10.2,41.15s-3.4,29.08-10.2,41.03c-6.8,11.96-16.45,21.23-28.93,27.8-12.48,6.58-26.95,9.87-43.39,9.87h-58.97V94.24h58.97c16.59,0,31.09,3.29,43.5,9.87ZM654.36,206.57c8.07-7.92,12.11-19.13,12.11-33.63s-4.04-25.79-12.11-33.86-19.36-12.11-33.86-12.11h-18.16v91.49h18.16c14.5,0,25.79-3.96,33.86-11.88Z"/>
    <path class="cls-1" d="M825,223.84h-58.75l-9.42,27.8h-40.14l56.95-157.41h44.4l56.95,157.41h-40.58l-9.42-27.8ZM815.14,194.24l-19.51-57.63-19.28,57.63h38.79Z"/>
    <path class="cls-1" d="M918.28,247.61c-9.12-3.73-16.41-9.27-21.86-16.59-5.46-7.32-8.33-16.14-8.63-26.46h40.81c.6,5.83,2.61,10.28,6.05,13.34,3.44,3.07,7.92,4.6,13.45,4.6s10.16-1.31,13.45-3.92c3.29-2.61,4.93-6.24,4.93-10.88,0-3.89-1.31-7.1-3.92-9.64-2.62-2.54-5.83-4.63-9.64-6.28-3.81-1.64-9.23-3.51-16.26-5.61-10.17-3.14-18.46-6.28-24.89-9.42-6.43-3.14-11.96-7.77-16.59-13.9-4.64-6.13-6.95-14.13-6.95-23.99,0-14.65,5.3-26.12,15.92-34.42,10.61-8.3,24.44-12.44,41.48-12.44s31.32,4.15,41.93,12.44c10.61,8.3,16.29,19.84,17.04,34.64h-41.48c-.3-5.08-2.17-9.08-5.61-12-3.44-2.92-7.85-4.37-13.23-4.37-4.64,0-8.37,1.23-11.21,3.7-2.84,2.47-4.26,6.02-4.26,10.65,0,5.08,2.39,9.05,7.18,11.88,4.78,2.84,12.26,5.91,22.42,9.19,10.16,3.44,18.42,6.73,24.78,9.87,6.35,3.14,11.85,7.7,16.48,13.68,4.63,5.98,6.95,13.68,6.95,23.1s-2.28,17.12-6.84,24.44c-4.56,7.33-11.18,13.16-19.84,17.49-8.67,4.34-18.91,6.5-30.72,6.5s-21.83-1.87-30.94-5.61Z"/>
    <path class="cls-1" d="M1143.41,94.24v30.72h-41.71v126.69h-38.34v-126.69h-41.71v-30.72h121.76Z"/>
    <path class="cls-1" d="M1201.04,94.24v157.41h-38.34V94.24h38.34Z"/>
    <path class="cls-1" d="M1331.31,94.24v30.72h-64.13v33.19h47.99v29.82h-47.99v63.68h-38.34V94.24h102.47Z"/>
    <path class="cls-1" d="M1486.48,94.24l-54.49,105.39v52.02h-38.34v-52.02l-54.49-105.39h43.5l30.5,65.92,30.27-65.92h43.05Z"/>
  </g>
  <g>
    <path class="cls-1" d="M811.91,308.6c6.72,3.4,11.86,8.3,15.42,14.69,3.56,6.39,5.34,14,5.34,22.82s-1.78,16.29-5.34,22.64c-3.56,6.35-8.7,11.21-15.42,14.57-6.72,3.36-14.77,5.04-24.16,5.04h-25.13v-84.86h25.13c9.39,0,17.44,1.7,24.16,5.1ZM814.76,372.03c6.19-6.19,9.29-14.83,9.29-25.92s-3.1-19.89-9.29-26.16c-6.19-6.27-15.2-9.41-27.01-9.41h-16.63v70.77h16.63c11.81,0,20.82-3.1,27.01-9.29Z"/>
    <path class="cls-1" d="M873.94,303.5v84.86h-8.5v-84.86h8.5Z"/>
    <path class="cls-1" d="M977.13,328.26c-2.43-5.58-6.13-9.97-11.11-13.17-4.98-3.2-10.83-4.79-17.54-4.79-6.31,0-11.98,1.46-17,4.37-5.02,2.91-8.98,7.06-11.9,12.44-2.91,5.38-4.37,11.63-4.37,18.76s1.46,13.4,4.37,18.82c2.91,5.42,6.88,9.59,11.9,12.5,5.02,2.91,10.68,4.37,17,4.37,5.91,0,11.23-1.28,15.96-3.82s8.54-6.19,11.41-10.93c2.87-4.73,4.51-10.26,4.92-16.57h-35.69v-6.92h44.67v6.19c-.41,7.45-2.43,14.18-6.07,20.21-3.64,6.03-8.52,10.79-14.63,14.26-6.11,3.48-12.97,5.22-20.58,5.22s-14.97-1.84-21.37-5.52c-6.39-3.68-11.43-8.82-15.11-15.42-3.68-6.6-5.52-14.06-5.52-22.4s1.84-15.8,5.52-22.4c3.68-6.59,8.72-11.73,15.11-15.42,6.39-3.68,13.51-5.52,21.37-5.52,9.06,0,17,2.27,23.79,6.8,6.8,4.53,11.73,10.85,14.81,18.94h-9.96Z"/>
    <path class="cls-1" d="M1030.91,303.5v84.86h-8.5v-84.86h8.5Z"/>
    <path class="cls-1" d="M1116.98,303.5v7.04h-23.55v77.81h-8.5v-77.81h-23.67v-7.04h55.72Z"/>
    <path class="cls-1" d="M1196.73,368.2h-38.6l-7.41,20.15h-8.98l30.96-83.76h9.59l30.83,83.76h-8.98l-7.41-20.15ZM1194.18,361.16l-16.75-45.89-16.75,45.89h33.5Z"/>
    <path class="cls-1" d="M1252.33,381.43h30.47v6.92h-38.97v-84.86h8.5v77.94Z"/>
  </g>
  <line class="cls-2" x1="564.27" y1="343.11" x2="731.06" y2="343.11"/>
  <line class="cls-2" x1="1306.09" y1="343.11" x2="1472.87" y2="343.11"/>
  <path class="cls-1" d="M206.52,0h-124.5C36.72,0,0,36.72,0,82.02v160.82c0,8.83,7.16,15.98,15.98,15.98h0l77.57.04h.07l42.83.02,48.61-52.43-86.83-87.93,56.25-.54,89.01,87.92-93.39,96.12H17.05c-9.42,0-17.05,7.63-17.05,17.05v100.93h209.2c58,0,110.49-23.51,148.49-61.51,38.53-38.53,62.15-91.96,61.49-150.9C417.89,92.11,322,0,206.52,0ZM235.99,302.02l-51.7-1.43,86.65-94.14-86.83-87.92,56.26-.55,89.01,87.92-93.39,96.12Z"/>
</svg>