<svg width="922" height="297" viewBox="0 0 922 297" fill="none" xmlns="http://www.w3.org/2000/svg">
<g clip-path="url(#clip0_71_62)">
<path d="M102.47 12.1002C114.88 18.6802 124.48 27.9102 131.28 39.7902C138.08 51.6702 141.48 65.3902 141.48 80.9402C141.48 96.4902 138.08 110.02 131.28 121.97C124.48 133.93 114.83 143.2 102.35 149.77C89.8702 156.35 75.4003 159.64 58.9603 159.64H-0.00976562V2.24023H58.9603C75.5503 2.24023 90.0503 5.53024 102.46 12.1102L102.47 12.1002ZM90.3602 114.57C98.4302 106.65 102.47 95.4402 102.47 80.9402C102.47 66.4402 98.4302 55.1502 90.3602 47.0802C82.2902 39.0102 71.0002 34.9702 56.5002 34.9702H38.3403V126.46H56.5002C71.0002 126.46 82.2902 122.5 90.3602 114.58V114.57Z" fill="white"/>
<path d="M260.999 131.84H202.249L192.829 159.64H152.689L209.639 2.23047H254.039L310.989 159.64H270.409L260.989 131.84H260.999ZM251.139 102.24L231.629 44.6105L212.349 102.24H251.139Z" fill="white"/>
<path d="M354.281 155.61C345.161 151.88 337.871 146.34 332.421 139.02C326.961 131.7 324.091 122.88 323.791 112.56H364.601C365.201 118.39 367.211 122.84 370.651 125.9C374.091 128.97 378.571 130.5 384.101 130.5C389.631 130.5 394.261 129.19 397.551 126.58C400.841 123.97 402.481 120.34 402.481 115.7C402.481 111.81 401.171 108.6 398.561 106.06C395.941 103.52 392.731 101.43 388.921 99.78C385.111 98.14 379.691 96.27 372.661 94.17C362.491 91.03 354.201 87.89 347.771 84.75C341.341 81.61 335.811 76.98 331.181 70.85C326.541 64.72 324.231 56.72 324.231 46.86C324.231 32.21 329.531 20.74 340.151 12.44C350.761 4.14 364.591 0 381.631 0C398.671 0 412.951 4.15 423.561 12.44C434.171 20.74 439.851 32.28 440.601 47.08H399.121C398.821 42 396.951 38 393.511 35.08C390.071 32.16 385.661 30.71 380.281 30.71C375.641 30.71 371.911 31.94 369.071 34.41C366.231 36.88 364.811 40.43 364.811 45.06C364.811 50.14 367.201 54.11 371.991 56.94C376.771 59.78 384.251 62.85 394.411 66.13C404.571 69.57 412.831 72.86 419.191 76C425.541 79.14 431.041 83.7 435.671 89.68C440.301 95.66 442.621 103.36 442.621 112.78C442.621 122.2 440.341 129.9 435.781 137.22C431.221 144.55 424.601 150.38 415.941 154.71C407.271 159.05 397.031 161.21 385.221 161.21C373.411 161.21 363.391 159.34 354.281 155.6V155.61Z" fill="white"/>
<path d="M579.41 2.24023V32.9602H537.7V159.65H499.36V32.9602H457.65V2.24023H579.41Z" fill="white"/>
<path d="M637.039 2.24023V159.65H598.699V2.24023H637.039Z" fill="white"/>
<path d="M767.31 2.24023V32.9602H703.18V66.1502H751.17V95.9702H703.18V159.65H664.84V2.24023H767.31Z" fill="white"/>
<path d="M922.48 2.24023L867.99 107.63V159.65H829.65V107.63L775.16 2.24023H818.66L849.16 68.1602L879.43 2.24023H922.48Z" fill="white"/>
<path d="M247.909 216.6C254.629 220 259.769 224.9 263.329 231.29C266.889 237.68 268.669 245.29 268.669 254.11C268.669 262.93 266.889 270.4 263.329 276.75C259.769 283.1 254.629 287.96 247.909 291.32C241.189 294.68 233.139 296.36 223.749 296.36H198.619V211.5H223.749C233.139 211.5 241.189 213.2 247.909 216.6ZM250.759 280.03C256.949 273.84 260.049 265.2 260.049 254.11C260.049 243.02 256.949 234.22 250.759 227.95C244.569 221.68 235.559 218.54 223.749 218.54H207.119V289.31H223.749C235.559 289.31 244.569 286.21 250.759 280.02V280.03Z" fill="white"/>
<path d="M309.939 211.5V296.36H301.439V211.5H309.939Z" fill="white"/>
<path d="M413.129 236.26C410.699 230.68 406.999 226.29 402.019 223.09C397.039 219.89 391.189 218.3 384.479 218.3C378.169 218.3 372.499 219.76 367.479 222.67C362.459 225.58 358.499 229.73 355.579 235.11C352.669 240.49 351.209 246.74 351.209 253.87C351.209 261 352.669 267.27 355.579 272.69C358.489 278.11 362.459 282.28 367.479 285.19C372.499 288.1 378.159 289.56 384.479 289.56C390.389 289.56 395.709 288.28 400.439 285.74C405.169 283.2 408.979 279.55 411.849 274.81C414.719 270.08 416.359 264.55 416.769 258.24H381.079V251.32H425.749V257.51C425.339 264.96 423.319 271.69 419.679 277.72C416.039 283.75 411.159 288.51 405.049 291.98C398.939 295.46 392.079 297.2 384.469 297.2C376.859 297.2 369.499 295.36 363.099 291.68C356.709 288 351.669 282.86 347.989 276.26C344.309 269.66 342.469 262.2 342.469 253.86C342.469 245.52 344.309 238.06 347.989 231.46C351.669 224.87 356.709 219.73 363.099 216.04C369.489 212.36 376.609 210.52 384.469 210.52C393.529 210.52 401.469 212.79 408.259 217.32C415.059 221.85 419.989 228.17 423.069 236.26H413.109H413.129Z" fill="white"/>
<path d="M466.908 211.5V296.36H458.408V211.5H466.908Z" fill="white"/>
<path d="M552.98 211.5V218.54H529.43V296.35H520.93V218.54H497.26V211.5H552.98Z" fill="white"/>
<path d="M632.728 276.2H594.128L586.718 296.35H577.738L608.698 212.59H618.288L649.118 296.35H640.138L632.728 276.2ZM630.178 269.16L613.428 223.27L596.678 269.16H630.178Z" fill="white"/>
<path d="M688.328 289.429H718.798V296.349H679.828V211.489H688.328V289.429Z" fill="white"/>
<path d="M0.269531 251.11H167.06" stroke="white" stroke-width="4" stroke-miterlimit="10"/>
<path d="M742.09 251.11H908.87" stroke="white" stroke-width="4" stroke-miterlimit="10"/>
</g>
<defs>
<clipPath id="clip0_71_62">
<rect width="922" height="297" fill="white"/>
</clipPath>
</defs>
</svg>
