<?xml version="1.0" encoding="UTF-8"?>
<svg id="Layer_1" data-name="Layer 1" xmlns="http://www.w3.org/2000/svg" viewBox="0 0 1830.57 561.97">
  <defs>
    <style>
      .cls-1 {
        font-family: Poppins-Light, Poppins;
        font-size: 149.34px;
        font-weight: 300;
      }

      .cls-1, .cls-2, .cls-3 {
        fill: #fff;
      }

      .cls-3 {
        font-family: Poppins-Bold, Poppins;
        font-size: 275.84px;
        font-weight: 700;
      }

      .cls-4 {
        fill: none;
        stroke: #fff;
        stroke-miterlimit: 10;
        stroke-width: 4px;
      }
    </style>
  </defs>
  <text class="cls-3" transform="translate(676.72 309.57)"><tspan x="0" y="0">DASTIFY</tspan></text>
  <text class="cls-1" transform="translate(926.22 477.74)"><tspan x="0" y="0">DIGITAL</tspan></text>
  <path class="cls-2" d="M515.67,255.37C514.08,113.32,396.12,0,254.06,0H100.89c-3.48,0-6.92.18-10.31.52-.85.09-1.7.19-2.54.29-.84.11-1.68.23-2.51.35-.42.06-.83.13-1.25.2-.83.14-1.66.28-2.49.44-1.65.32-3.28.67-4.9,1.07-.81.2-1.61.41-2.42.62-.8.22-1.6.44-2.39.68-.8.24-1.58.48-2.37.74-1.18.38-2.35.79-3.5,1.21-1.16.43-2.31.87-3.45,1.33-.76.31-1.51.63-2.27.96-1.87.82-3.72,1.69-5.53,2.62-.73.37-1.45.75-2.16,1.14-1.43.78-2.84,1.59-4.22,2.43-.69.43-1.38.85-2.06,1.29-1.03.66-2.03,1.33-3.03,2.02-.66.46-1.33.93-1.98,1.41-.98.71-1.95,1.45-2.9,2.2-1.91,1.5-3.76,3.06-5.55,4.69-.6.54-1.19,1.09-1.77,1.65C12.01,46.23,0,72.16,0,100.89v197.84c0,10.86,8.8,19.67,19.66,19.67l95.43.05h.09l52.69.02,59.8-64.5-106.82-108.17,69.2-.66,109.5,108.16-114.88,118.24H20.97c-11.59,0-20.97,9.39-20.97,20.98v124.16h257.35c8.36,0,16.63-.4,24.79-1.18,1.63-.16,3.26-.33,4.88-.51,1.62-.19,3.24-.39,4.85-.6,2.15-.28,4.3-.6,6.43-.94,1.07-.17,2.13-.35,3.19-.53,2.65-.46,5.3-.95,7.93-1.49,1.05-.22,2.1-.44,3.15-.66,1.57-.34,3.13-.7,4.69-1.07,2.6-.62,5.18-1.28,7.75-1.97.51-.14,1.03-.28,1.54-.42,1.03-.28,2.04-.58,3.07-.87.51-.15,1.02-.3,1.52-.45,1.53-.45,3.04-.92,4.56-1.4,1.51-.48,3.02-.97,4.52-1.48.5-.17,1-.34,1.5-.51,7.6-2.62,15.04-5.59,22.29-8.89,1.68-.76,3.34-1.54,5-2.33.55-.27,1.1-.53,1.65-.8,1.65-.8,3.29-1.63,4.92-2.47.54-.28,1.09-.57,1.62-.85,8-4.19,15.74-8.8,23.22-13.77,1.36-.91,2.71-1.83,4.05-2.75,1.34-.93,2.67-1.87,3.99-2.83,1.32-.96,2.64-1.93,3.94-2.9,1.3-.98,2.6-1.97,3.88-2.97,2.57-2,5.1-4.06,7.58-6.16,1.24-1.05,2.48-2.11,3.7-3.18.53-.47,1.07-.94,1.6-1.42,1.06-.95,2.12-1.9,3.17-2.87,2.62-2.41,5.19-4.87,7.7-7.39h0c4.38-4.39,8.61-8.93,12.67-13.61,1.35-1.56,2.69-3.14,4-4.73,3.95-4.78,7.73-9.71,11.33-14.78,1.2-1.69,2.38-3.39,3.54-5.11,2.32-3.44,4.56-6.93,6.72-10.48,1.28-2.1,2.52-4.21,3.73-6.35.85-1.48,1.67-2.97,2.49-4.46,1.49-2.75,2.94-5.53,4.33-8.33.23-.47.46-.94.69-1.4.46-.94.91-1.88,1.36-2.82.22-.47.44-.95.66-1.42,0,0,0,0,0,0,.66-1.42,1.32-2.85,1.95-4.28.21-.47.43-.95.63-1.43,2.94-6.72,5.6-13.59,7.98-20.59.28-.84.56-1.67.83-2.51.11-.33.21-.65.32-.98.38-1.19.76-2.39,1.13-3.59.2-.66.41-1.33.61-1.99.3-1.01.59-2.03.88-3.05.19-.65.37-1.31.55-1.96.52-1.91,1.03-3.82,1.51-5.75,0,0,0,0,0,0,.26-1.03.51-2.07.76-3.1.29-1.23.57-2.46.85-3.69.15-.67.29-1.34.44-2.02.08-.37.15-.73.23-1.1.26-1.22.5-2.45.74-3.67.27-1.41.53-2.83.78-4.25.13-.7.24-1.39.36-2.09.06-.35.12-.71.18-1.06.12-.72.24-1.45.35-2.18.21-1.38.42-2.76.61-4.15.11-.79.22-1.58.32-2.37.1-.8.2-1.61.3-2.42.1-.83.2-1.67.28-2.51.09-.8.18-1.61.26-2.42.08-.84.16-1.68.24-2.52.78-8.69,1.13-17.5,1.03-26.41ZM290.31,371.53l-63.6-1.75,106.6-115.82-106.82-108.16,69.21-.67,109.5,108.16-114.88,118.24Z"/>
  <line class="cls-4" x1="694.16" y1="422.09" x2="899.34" y2="422.09"/>
  <line class="cls-4" x1="1606.73" y1="422.09" x2="1811.91" y2="422.09"/>
</svg>